#!OML:ASF G:\acrobat\cartwheel_test\acrobat_wednesday\Session 1\acrobatwednesday.ASF
:FULLY-SPECIFIED
:DEGREES
20
root -7.96719 16.9192 -2.3073 5.4724 -8.74495 -2.80797
lowerback -3.42654 2.14009 -0.0329551
upperback 0.692091 2.871 -0.604529
thorax 2.65955 1.43547 -0.438791
lowerneck -22.897 7.90306 1.78394
upperneck 26.572 10.4875 0.612924
head 12.6931 4.89278 1.76541
rclavicle 1.28216e-014 1.31198e-014
rhumerus -39.3751 -24.8388 -67.3192
rradius 32.5451
rwrist 29.1138
rhand -20.5928 5.06972
rfingers 7.12502
rthumb 5.76747 -24.8318
lclavicle 1.28216e-014 1.31198e-014
lhumerus -26.1912 12.8791 71.6686
lradius 18.2117
lwrist 14.7283
lhand -21.7736 -14.3945
lfingers 7.12502
lthumb 4.62737 15.5349
rfemur -1.76207 -5.56119 16.5589
rtibia 34.9413
rfoot -18.148 -9.54782
rtoes -23.8674
lfemur -2.0189 -6.00206 -22.2127
ltibia 4.32676
lfoot 1.08448 -6.3861
ltoes -41.258
21
root -7.96427 16.9183 -2.30936 5.50808 -8.72496 -2.72387
lowerback -3.47838 2.16787 -0.135947
upperback 0.667911 2.91301 -0.620574
thorax 2.65986 1.45487 -0.393847
lowerneck -22.9593 7.87902 1.84927
upperneck 26.6425 10.4685 0.49519
head 12.7465 4.8713 1.71385
rclavicle -2.88735e-014 1.82882e-014
rhumerus -39.4675 -24.904 -67.2391
rradius 32.5545
rwrist 29.1925
rhand -20.2613 5.26532
rfingers 7.12502
rthumb 6.08755 -24.6272
lclavicle -2.88735e-014 1.82882e-014
lhumerus -26.1687 13.1548 71.6412
lradius 18.1661
lwrist 14.531
lhand -21.5285 -14.3722
lfingers 7.12502
lthumb 4.86409 15.552
rfemur -1.82514 -5.36573 16.5371
rtibia 34.9431
rfoot -18.3199 -9.24569
rtoes -24.4668
lfemur -2.03576 -6.16516 -22.3488
ltibia 4.2651
lfoot 1.26082 -6.42889
ltoes -41.8857
22
root -7.96236 16.9174 -2.31172 5.52047 -8.70566 -2.62698
lowerback -3.50485 2.22984 -0.222203
upperback 0.647493 3.00117 -0.688193
thorax 2.65362 1.49797 -0.409342
lowerneck -23.0521 7.80907 1.90179
upperneck 26.6972 10.3513 0.48851
head 12.7907 4.82138 1.68914
rclavicle 1.93318e-014 -1.78906e-014
rhumerus -39.6013 -24.9359 -67.2254
rradius 32.6336
rwrist 28.846
rhand -19.8861 5.26161
rfingers 7.12502
rthumb 6.4498 -24.6202
lclavicle 1.93318e-014 -1.78906e-014
lhumerus -26.0922 13.0071 71.7126
lradius 18.1101
lwrist 14.4206
lhand -21.5274 -14.3738
lfingers 7.12502
lthumb 4.86513 15.5503
rfemur -1.78646 -4.95185 16.5958
rtibia 34.8153
rfoot -18.4676 -8.67775
rtoes -25.2028
lfemur -2.09042 -6.07852 -22.4652
ltibia 4.2837
lfoot 1.20757 -6.34766
ltoes -41.7361
23
root -7.95873 16.9168 -2.31579 5.49521 -8.63333 -2.59104
lowerback -3.5043 2.25624 -0.181477
upperback 0.676495 3.03611 -0.737062
thorax 2.68822 1.51638 -0.479353
lowerneck -23.0401 7.71485 1.80895
upperneck 26.5703 10.225 0.551107
head 12.7265 4.76889 1.69937
rclavicle 2.77305e-014 -1.43125e-014
rhumerus -39.622 -25.0703 -67.2074
rradius 32.6226
rwrist 28.6789
rhand -20.0347 5.21697
rfingers 7.12502
rthumb 6.30636 -24.6692
lclavicle 2.77305e-014 -1.43125e-014
lhumerus -25.9671 12.7984 71.831
lradius 18.0708
lwrist 14.483
lhand -21.7003 -14.2806
lfingers 7.12502
lthumb 4.69816 15.6473
rfemur -1.74175 -4.84073 16.627
rtibia 34.8211
rfoot -18.55 -8.34194
rtoes -26.6071
lfemur -2.11745 -6.11127 -22.5172
ltibia 4.34936
lfoot 1.35754 -6.28277
ltoes -41.548
24
root -7.95419 16.9156 -2.32198 5.51401 -8.52755 -2.59453
lowerback -3.53618 2.26984 -0.0827706
upperback 0.70534 3.05153 -0.783351
thorax 2.7437 1.52597 -0.578756
lowerneck -22.9828 7.63521 1.73612
upperneck 26.38 10.111 0.610606
head 12.6298 4.72546 1.70321
rclavicle 9.24349e-015 -1.82882e-014
rhumerus -39.6161 -25.3214 -67.1931
rradius 32.5292
rwrist 28.9987
rhand -20.5376 5.01243
rfingers 7.12502
rthumb 5.82076 -24.8876
lclavicle 9.24349e-015 -1.82882e-014
lhumerus -25.8307 12.6719 71.8995
lradius 18.0584
lwrist 14.592
lhand -21.7871 -14.4271
lfingers 7.12502
lthumb 4.61436 15.5026
rfemur -1.85415 -4.95953 16.6123
rtibia 34.9671
rfoot -18.5561 -8.23722
rtoes -27.6854
lfemur -2.18705 -6.32554 -22.5281
ltibia 4.41448
lfoot 1.55089 -6.30567
ltoes -41.3364
25
root -7.95349 16.9155 -2.32695 5.52646 -8.47349 -2.56076
lowerback -3.5791 2.27543 -0.182224
upperback 0.715891 3.06352 -0.77185
thorax 2.77294 1.53016 -0.508708
lowerneck -22.9777 7.57921 1.68723
upperneck 26.3274 10.0289 0.666489
head 12.6009 4.69383 1.71514
rclavicle -3.58309e-014 1.35174e-014
rhumerus -39.5707 -25.1958 -67.2526
rradius 32.442
rwrist 29.086
rhand -20.6697 4.73401
rfingers 7.12502
rthumb 5.69321 -25.1695
lclavicle -3.58309e-014 1.35174e-014
lhumerus -25.7662 12.8154 71.9095
lradius 17.9859
lwrist 14.4652
lhand -21.7366 -14.8998
lfingers 7.12502
lthumb 4.66315 15.0289
rfemur -1.96302 -5.06766 16.5562
rtibia 35.0356
rfoot -18.6086 -8.08669
rtoes -27.8769
lfemur -2.2393 -6.20876 -22.5398
ltibia 4.42953
lfoot 1.41789 -6.19994
ltoes -41.0079
26
root -7.95508 16.917 -2.33084 5.49321 -8.46147 -2.57408
lowerback -3.60231 2.24738 -0.326533
upperback 0.761708 3.03068 -0.675138
thorax 2.82006 1.51049 -0.328992
lowerneck -23.0707 7.58756 1.5462
upperneck 26.3814 10.0763 0.724399
head 12.6281 4.70631 1.77296
rclavicle -2.87244e-014 7.55382e-015
rhumerus -39.4124 -24.8786 -67.3672
rradius 32.3586
rwrist 28.6916
rhand -20.8405 4.701
rfingers 7.12502
rthumb 5.52836 -25.2069
lclavicle -2.87244e-014 7.55382e-015
lhumerus -25.7055 13.2273 71.9198
lradius 17.8182
lwrist 14.1404
lhand -21.7487 -15.1001
lfingers 7.12502
lthumb 4.6514 14.8288
rfemur -1.95643 -5.18145 16.5693
rtibia 35.0256
rfoot -18.7365 -7.92668
rtoes -28.0786
lfemur -2.18495 -5.98734 -22.4908
ltibia 4.36392
lfoot 1.20953 -6.01307
ltoes -41.5
27
root -7.95435 16.9178 -2.33681 5.46974 -8.41468 -2.64841
lowerback -3.54058 2.19649 -0.347049
upperback 0.776312 2.96099 -0.585522
thorax 2.7942 1.47477 -0.232157
lowerneck -23.1804 7.67155 1.52218
upperneck 26.4878 10.2065 0.731793
head 12.6903 4.75799 1.81115
rclavicle -2.48481e-015 -7.15625e-015
rhumerus -39.3169 -24.6558 -67.5031
rradius 32.3075
rwrist 28.1806
rhand -21.4643 4.71729
rfingers 7.12502
rthumb 4.92606 -25.2054
lclavicle -2.48481e-015 -7.15625e-015
lhumerus -25.7446 13.4282 71.9701
lradius 17.7825
lwrist 14.0008
lhand -21.8166 -14.8464
lfingers 7.12502
lthumb 4.58588 15.084
rfemur -1.9714 -5.25707 16.665
rtibia 35.056
rfoot -18.8417 -7.83072
rtoes -28.6311
lfemur -2.14278 -6.04545 -22.405
ltibia 4.31138
lfoot 1.23605 -5.97386
ltoes -42.2248
28
root -7.95241 16.9187 -2.34228 5.43985 -8.36221 -2.65655
lowerback -3.41912 2.14559 -0.376522
upperback 0.742549 2.89214 -0.545511
thorax 2.68738 1.44004 -0.184667
lowerneck -23.2669 7.73556 1.4912
upperneck 26.6285 10.3081 0.755875
head 12.7604 4.79819 1.8521
rclavicle -2.127e-014 2.22639e-014
rhumerus -39.337 -24.5157 -67.5575
rradius 32.2869
rwrist 28.0829
rhand -21.9382 4.64258
rfingers 7.12502
rthumb 4.46841 -25.2903
lclavicle -2.127e-014 2.22639e-014
lhumerus -25.9555 13.1294 72.1086
lradius 18.0514
lwrist 14.3944
lhand -21.8589 -14.717
lfingers 7.12502
lthumb 4.54499 15.2143
rfemur -2.01106 -5.36381 16.6413
rtibia 35.1351
rfoot -18.9037 -7.76382
rtoes -28.9966
lfemur -2.14026 -6.0097 -22.3961
ltibia 4.31839
lfoot 1.03645 -6.26384
ltoes -39.8571
